<svg width="88" height="16" viewBox="0 0 88 16" fill="none" xmlns="http://www.w3.org/2000/svg">
<path d="M7.99948 11.3334L4.08096 13.7269L5.14635 9.26053L1.65917 6.27338L6.23615 5.90644L7.99948 1.66686L9.76286 5.90644L14.3398 6.27338L10.8527 9.26053L11.918 13.7269L7.99948 11.3334Z" fill="#0C0C0C"/>
<path d="M25.7767 11.3336L21.8582 13.727L22.9236 9.26065L19.4364 6.2735L24.0134 5.90656L25.7767 1.66698L27.5401 5.90656L32.117 6.2735L28.6299 9.26065L29.6953 13.727L25.7767 11.3336Z" fill="#0C0C0C"/>
<path d="M43.5549 11.3336L39.6363 13.727L40.7017 9.26065L37.2146 6.2735L41.7915 5.90656L43.5549 1.66698L45.3183 5.90656L49.8952 6.2735L46.408 9.26065L47.4734 13.727L43.5549 11.3336Z" fill="#0C0C0C"/>
<path d="M61.3321 11.3336L57.4136 13.727L58.4789 9.26065L54.9918 6.2735L59.5688 5.90656L61.3321 1.66698L63.0955 5.90656L67.6724 6.2735L64.1853 9.26065L65.2506 13.727L61.3321 11.3336Z" fill="#0C0C0C"/>
<path d="M79.1103 11.3336L75.1917 13.727L76.2571 9.26065L72.77 6.2735L77.3469 5.90656L79.1103 1.66698L80.8737 5.90656L85.4506 6.2735L81.9634 9.26065L83.0288 13.727L79.1103 11.3336Z" fill="#0C0C0C"/>
</svg>
