<svg width="16" height="16" viewBox="0 0 16 16" fill="none" xmlns="http://www.w3.org/2000/svg">
<path d="M14.0384 4.78715C14.0446 4.92795 14.0446 5.06235 14.0446 5.20315C14.0508 9.47196 10.9144 14.4 5.17894 14.4C3.48731 14.4 1.82655 13.8944 0.400391 12.9472C0.647344 12.9792 0.894298 12.992 1.14125 12.992C2.54271 12.992 3.90713 12.5056 5.01225 11.6032C3.6787 11.5776 2.50567 10.6752 2.0982 9.35676C2.56741 9.45276 3.04897 9.43356 3.50583 9.29916C2.05498 9.00476 1.0116 7.67996 1.00543 6.13755C1.00543 6.12475 1.00543 6.11195 1.00543 6.09915C1.4376 6.34875 1.92533 6.48955 2.41924 6.50235C1.05482 5.55515 0.628823 3.66714 1.45612 2.18874C3.0428 4.21114 5.37651 5.43355 7.88309 5.56795C7.62996 4.44794 7.9757 3.27034 8.78447 2.47674C10.0378 1.25433 12.0134 1.31833 13.1988 2.61754C13.8964 2.47674 14.5694 2.20794 15.1806 1.83034C14.946 2.57914 14.4582 3.21274 13.81 3.61594C14.4274 3.53914 15.0324 3.36634 15.6004 3.11034C15.1806 3.76314 14.6496 4.32634 14.0384 4.78715Z" fill="white"/>
</svg>
