<svg width="16" height="16" viewBox="0 0 16 16" fill="none" xmlns="http://www.w3.org/2000/svg">
<path d="M15.6704 4.1529C15.4859 3.46757 14.9456 2.9272 14.2602 2.74269C13.0082 2.40002 7.99997 2.40002 7.99997 2.40002C7.99997 2.40002 2.99175 2.40002 1.7397 2.72951C1.06754 2.91403 0.514001 3.46757 0.329488 4.1529C0 5.40495 0 8.00132 0 8.00132C0 8.00132 0 10.6109 0.329488 11.8497C0.514001 12.5351 1.05436 13.0754 1.7397 13.2599C3.00493 13.6026 7.99997 13.6026 7.99997 13.6026C7.99997 13.6026 13.0082 13.6026 14.2602 13.2731C14.9456 13.0886 15.4859 12.5483 15.6704 11.8629C15.9999 10.6109 15.9999 8.0145 15.9999 8.0145C15.9999 8.0145 16.0131 5.40495 15.6704 4.1529Z" fill="white"/>
<path d="M6.40527 10.4L10.57 8.00133L6.40527 5.60266V10.4Z" fill="black"/>
</svg>
