<svg width="410" height="12" viewBox="0 0 410 12" fill="none" xmlns="http://www.w3.org/2000/svg">
<path fill-rule="evenodd" clip-rule="evenodd" d="M358.315 11.5757C358.982 11.8586 359.729 12 360.556 12C361.149 12 361.712 11.9253 362.245 11.7758C362.779 11.6264 363.249 11.4049 363.654 11.1114C364.065 10.8125 364.388 10.4443 364.623 10.0067C364.858 9.56371 364.975 9.05136 364.975 8.46964C364.975 7.90927 364.871 7.44496 364.663 7.07672C364.455 6.70313 364.191 6.40427 363.87 6.18012C363.556 5.95597 363.227 5.78252 362.886 5.65977C362.55 5.53169 362.248 5.43029 361.981 5.35557L359.852 4.75517C359.58 4.68045 359.305 4.58706 359.027 4.47498C358.755 4.35757 358.526 4.20013 358.339 4.00267C358.152 3.8052 358.059 3.54636 358.059 3.22615C358.059 2.9006 358.163 2.61241 358.371 2.36157C358.584 2.11074 358.867 1.91594 359.219 1.77718C359.577 1.63843 359.969 1.57438 360.396 1.58506C360.839 1.59039 361.25 1.67845 361.629 1.84923C362.008 2.01468 362.328 2.25484 362.59 2.56971C362.851 2.87925 363.022 3.25017 363.102 3.68245L364.895 3.37825C364.74 2.66844 364.457 2.06538 364.047 1.56905C363.641 1.06738 363.129 0.683122 362.51 0.416278C361.896 0.149433 361.199 0.0106736 360.42 0C359.646 0 358.947 0.128085 358.323 0.384256C357.698 0.63509 357.202 1.00867 356.834 1.505C356.471 1.996 356.289 2.5964 356.289 3.3062C356.289 3.77585 356.367 4.17612 356.522 4.507C356.676 4.83255 356.876 5.1074 357.122 5.33155C357.373 5.55037 357.648 5.72915 357.947 5.86791C358.245 6.00133 358.539 6.11074 358.827 6.19613L361.781 7.06871C361.995 7.13275 362.189 7.21014 362.365 7.30087C362.547 7.38626 362.699 7.49032 362.822 7.61307C362.95 7.73048 363.049 7.86924 363.118 8.02935C363.193 8.18946 363.23 8.37358 363.23 8.58172C363.23 8.96598 363.11 9.29686 362.87 9.57438C362.635 9.84656 362.323 10.0574 361.933 10.2068C361.544 10.3509 361.117 10.4229 360.652 10.4229C359.905 10.4229 359.251 10.2281 358.691 9.83856C358.131 9.44363 357.762 8.89393 357.586 8.18946L355.841 8.45363C355.969 9.18479 356.247 9.81721 356.674 10.3509C357.106 10.8792 357.653 11.2875 358.315 11.5757ZM368.434 11.7038C368.84 11.8959 369.342 11.992 369.939 11.992C370.719 11.992 371.383 11.8239 371.933 11.4877C372.269 11.2821 372.557 11.0277 372.797 10.7244V11.7598H374.286V3.11408H372.597V7.61307C372.597 8.12541 372.538 8.56037 372.421 8.91794C372.309 9.27551 372.151 9.56371 371.949 9.78252C371.751 10.0013 371.519 10.1614 371.252 10.2628C370.985 10.3589 370.703 10.4069 370.404 10.4069C369.945 10.4069 369.571 10.3135 369.283 10.1267C369 9.93996 368.779 9.69446 368.618 9.39026C368.464 9.08605 368.357 8.75784 368.298 8.4056C368.245 8.04803 368.218 7.70113 368.218 7.36491V3.11408H366.521V7.91728C366.521 8.18412 366.545 8.49366 366.593 8.84589C366.641 9.19813 366.732 9.55837 366.865 9.92662C366.999 10.2949 367.191 10.6364 367.442 10.9513C367.698 11.2608 368.029 11.5117 368.434 11.7038ZM378.509 11.3996C379.069 11.7999 379.763 12 380.59 12C381.396 12 382.09 11.7999 382.672 11.3996C383.259 10.9993 383.71 10.455 384.024 9.76651C384.345 9.07271 384.505 8.29353 384.505 7.42895C384.505 6.55904 384.345 5.78252 384.024 5.0994C383.704 4.41094 383.248 3.86925 382.656 3.47432C382.069 3.07405 381.369 2.87392 380.558 2.87392C379.742 2.87392 379.053 3.07405 378.493 3.47432C378.392 3.54578 378.296 3.62204 378.205 3.70311V0.232155H376.523V11.7598H378.012V10.9666C378.164 11.1254 378.329 11.2698 378.509 11.3996ZM378.012 7.42895C378.012 6.83122 378.093 6.30287 378.253 5.84389C378.418 5.38492 378.669 5.02735 379.005 4.77118C379.347 4.51501 379.779 4.38692 380.302 4.38692C380.857 4.38692 381.313 4.52301 381.671 4.7952C382.029 5.06738 382.293 5.43295 382.463 5.89193C382.64 6.3509 382.728 6.86324 382.728 7.42895C382.728 8 382.64 8.51768 382.463 8.98199C382.293 9.44096 382.031 9.80654 381.679 10.0787C381.332 10.3509 380.892 10.487 380.358 10.487C379.808 10.487 379.36 10.3562 379.013 10.0947C378.666 9.83322 378.413 9.47298 378.253 9.01401C378.093 8.55503 378.012 8.02668 378.012 7.42895ZM396.639 6.37225L396.631 11.7598H398.304L398.312 5.97198C398.312 5.04336 398.056 4.29886 397.544 3.73849C397.032 3.17812 396.308 2.89793 395.374 2.89793C394.798 2.89793 394.278 3.02602 393.813 3.28219C393.37 3.52177 393.014 3.85631 392.746 4.28578C392.524 3.86235 392.21 3.53049 391.804 3.29019C391.372 3.02869 390.849 2.89793 390.235 2.89793C389.648 2.89793 389.122 3.02602 388.658 3.28219C388.299 3.48023 387.997 3.73409 387.753 4.04377V3.11408H386.264V11.7598H387.945V6.35624C387.945 5.76918 388.106 5.29419 388.426 4.93129C388.751 4.56838 389.178 4.38692 389.707 4.38692C390.24 4.38692 390.665 4.56571 390.98 4.92328C391.3 5.28085 391.46 5.77451 391.46 6.40427L391.452 11.7598H393.125L393.132 6.35598L393.133 6.35624C393.133 5.91861 393.213 5.5557 393.373 5.26751C393.539 4.97398 393.752 4.75517 394.014 4.61107C394.28 4.46164 394.574 4.38692 394.894 4.38692C395.417 4.38692 395.839 4.56304 396.159 4.91528C396.479 5.26217 396.639 5.74783 396.639 6.37225ZM400.551 0.0720485V1.69713H402.224V0.0720485H400.551ZM402.224 3.11408H400.551V11.7598H402.224V3.11408ZM407.975 11.8959C408.498 11.9119 409.031 11.8666 409.576 11.7598V10.3429C409.01 10.4229 408.516 10.4416 408.095 10.3989C407.678 10.3509 407.374 10.1614 407.182 9.83055C407.081 9.65443 407.025 9.43829 407.014 9.18212C407.009 8.92595 407.006 8.62441 407.006 8.27752V4.45897H409.576V3.11408H407.006V0.712475H405.325V3.11408H403.668V4.45897H405.325V8.35757C405.325 8.82722 405.33 9.24883 405.341 9.62241C405.357 9.99066 405.458 10.3536 405.645 10.7111C405.853 11.1114 406.163 11.4049 406.574 11.5917C406.985 11.7785 407.452 11.8799 407.975 11.8959ZM0 1.17278V11.2595H6.3042V10.2718H1.02969V6.63642H5.46364V5.64876H1.02969V2.16044H6.3042V1.17278H0ZM17.0187 6.29319L17.0117 11.2595H18.0414L18.0484 6.09706C18.0484 5.29853 17.8196 4.66578 17.3619 4.1988C16.9043 3.72715 16.2949 3.49133 15.5337 3.49133C15.0294 3.49133 14.5764 3.60574 14.1748 3.83456C13.7827 4.05598 13.4726 4.36628 13.2446 4.76543C13.2328 4.74205 13.2207 4.71895 13.2082 4.69613C12.9934 4.30387 12.6968 4.005 12.3186 3.79953C11.945 3.59406 11.5177 3.49133 11.0367 3.49133C10.5324 3.49133 10.0818 3.6034 9.68483 3.82755C9.37417 3.99933 9.11499 4.22259 8.90731 4.49735V3.69446H7.98269V11.2595H9.01938V6.37725C9.01938 5.78419 9.18049 5.31021 9.50271 4.9553C9.82492 4.59573 10.2475 4.41594 10.7706 4.41594C11.2936 4.41594 11.7138 4.59106 12.0314 4.94129C12.3536 5.28686 12.5147 5.76084 12.5147 6.36324L12.5077 11.2595H13.5234L13.53 6.37715L13.5304 6.37725C13.5304 5.91027 13.6168 5.53202 13.7896 5.24249C13.967 4.95297 14.1912 4.74283 14.462 4.61207C14.7329 4.48132 15.0107 4.41594 15.2956 4.41594C15.7952 4.41594 16.2062 4.58405 16.5284 4.92028C16.8553 5.25183 17.0187 5.70947 17.0187 6.29319ZM20.5933 11.1614C20.9809 11.3669 21.4595 11.4696 22.0292 11.4696C22.7857 11.4696 23.4348 11.2992 23.9765 10.9583C24.3575 10.7185 24.6681 10.4025 24.9082 10.0103V11.2595H25.8258V6.55937C25.8258 6.27918 25.8118 6.00367 25.7837 5.73282C25.7557 5.46197 25.695 5.21681 25.6016 4.99733C25.4008 4.507 25.0576 4.13342 24.5719 3.87658C24.0909 3.61508 23.5049 3.48432 22.8138 3.48432C21.9779 3.48432 21.2984 3.67111 20.7754 4.0447C20.2524 4.41828 19.9045 4.94363 19.7317 5.62075L20.7334 5.91494C20.8781 5.41061 21.128 5.04169 21.4829 4.8082C21.8424 4.57472 22.2814 4.45797 22.7998 4.45797C23.5516 4.45797 24.0793 4.63776 24.3828 4.99733C24.6628 5.32895 24.8076 5.8254 24.8175 6.4867C24.5708 6.52158 24.2998 6.55748 24.0046 6.59439C23.5609 6.64576 23.1056 6.7088 22.6386 6.78352C22.1763 6.85357 21.7537 6.93529 21.3708 7.02868C20.9926 7.12675 20.6587 7.26918 20.3691 7.45597C20.0843 7.64276 19.8578 7.88325 19.6897 8.17745C19.5262 8.46698 19.4445 8.81721 19.4445 9.22815C19.4445 9.62975 19.5402 10.001 19.7317 10.3419C19.9232 10.6828 20.2104 10.956 20.5933 11.1614ZM23.4092 10.3209C23.0496 10.4937 22.6293 10.5801 22.1483 10.5801C21.7421 10.5801 21.4152 10.5123 21.1677 10.3769C20.9248 10.2415 20.7474 10.071 20.6353 9.86557C20.5279 9.6601 20.4742 9.44763 20.4742 9.22815C20.4742 8.9573 20.5372 8.73082 20.6633 8.5487C20.7941 8.36658 20.9599 8.22181 21.1607 8.11441C21.3615 8.00233 21.5693 7.91594 21.7841 7.85523C22.1016 7.77118 22.4565 7.6988 22.8488 7.63809C23.2457 7.57738 23.6473 7.52368 24.0536 7.47698C24.3152 7.44725 24.5645 7.41752 24.8015 7.38779C24.8004 7.50166 24.7986 7.63646 24.7961 7.79219C24.7914 8.08172 24.7611 8.3479 24.705 8.59072C24.6396 8.96898 24.4972 9.30987 24.2777 9.61341C24.0583 9.91227 23.7687 10.1481 23.4092 10.3209ZM27.7894 1.10274V2.25851H28.8191V1.10274H27.7894ZM27.7894 3.69446V11.2595H28.8191V3.69446H27.7894ZM31.0591 0.962642V11.2595H32.0888V0.962642H31.0591ZM39.7672 1.17278L36.2929 11.2595H37.3646L38.2071 8.81487H42.6879L43.5358 11.2595H44.6075L41.1332 1.17278H39.7672ZM42.3526 7.84823L40.4403 2.33472L38.5403 7.84823H42.3526ZM47.0001 10.9443C47.4998 11.2945 48.1022 11.4696 48.8073 11.4696C49.5031 11.4696 50.0915 11.2945 50.5725 10.9443C50.8493 10.74 51.0875 10.4948 51.287 10.2085V11.2595H52.2116V1.17278H51.1749V4.58825C50.9968 4.36354 50.7913 4.16834 50.5585 4.00267C50.0728 3.6571 49.4751 3.48432 48.7653 3.48432C48.0742 3.48432 47.4811 3.65944 46.9861 4.00967C46.4911 4.35991 46.1105 4.83622 45.8443 5.43862C45.5828 6.04103 45.4521 6.71814 45.4521 7.46998C45.4521 8.22648 45.5852 8.90593 45.8513 9.50834C46.1175 10.1107 46.5004 10.5894 47.0001 10.9443ZM50.2433 10.1177C49.893 10.3793 49.4494 10.51 48.9124 10.51C48.3847 10.51 47.9457 10.3769 47.5955 10.1107C47.2453 9.84456 46.9814 9.48265 46.804 9.02501C46.6312 8.56271 46.5448 8.04436 46.5448 7.46998C46.5448 6.90026 46.6289 6.38659 46.797 5.92895C46.9698 5.47131 47.2336 5.1094 47.5885 4.84323C47.9434 4.57705 48.3917 4.44396 48.9334 4.44396C49.4611 4.44396 49.8977 4.57238 50.2433 4.82922C50.5935 5.08606 50.855 5.44329 51.0278 5.90093C51.2006 6.3539 51.287 6.87692 51.287 7.46998C51.287 8.0537 51.2006 8.57672 51.0278 9.03902C50.855 9.49666 50.5935 9.85623 50.2433 10.1177ZM55.3045 10.9443C55.8041 11.2945 56.4065 11.4696 57.1117 11.4696C57.8075 11.4696 58.3959 11.2945 58.8769 10.9443C59.1537 10.74 59.3918 10.4948 59.5913 10.2085V11.2595H60.5159V1.17278H59.4793V4.58825C59.3012 4.36354 59.0957 4.16834 58.8628 4.00267C58.3772 3.6571 57.7795 3.48432 57.0696 3.48432C56.3785 3.48432 55.7855 3.65944 55.2905 4.00967C54.7955 4.35991 54.4149 4.83622 54.1487 5.43862C53.8872 6.04103 53.7564 6.71814 53.7564 7.46998C53.7564 8.22648 53.8895 8.90593 54.1557 9.50834C54.4219 10.1107 54.8048 10.5894 55.3045 10.9443ZM58.5476 10.1177C58.1974 10.3793 57.7538 10.51 57.2168 10.51C56.6891 10.51 56.2501 10.3769 55.8999 10.1107C55.5496 9.84456 55.2858 9.48265 55.1083 9.02501C54.9356 8.56271 54.8492 8.04436 54.8492 7.46998C54.8492 6.90026 54.9332 6.38659 55.1013 5.92895C55.2741 5.47131 55.538 5.1094 55.8929 4.84323C56.2478 4.57705 56.6961 4.44396 57.2378 4.44396C57.7654 4.44396 58.2021 4.57238 58.5476 4.82922C58.8979 5.08606 59.1594 5.44329 59.3322 5.90093C59.5049 6.3539 59.5913 6.87692 59.5913 7.46998C59.5913 8.0537 59.5049 8.57672 59.3322 9.03902C59.1594 9.49666 58.8979 9.85623 58.5476 10.1177ZM62.4811 3.69446V11.2595H63.5108V7.48399C63.5108 7.18512 63.5318 6.88392 63.5738 6.58039C63.6158 6.27218 63.6999 5.98265 63.826 5.71181C63.9521 5.43629 64.1412 5.20047 64.3934 5.00433C64.6689 4.78019 64.9701 4.64943 65.297 4.61207C65.6238 4.57472 65.925 4.59106 66.2006 4.66111V3.69446C65.9811 3.63842 65.7383 3.61975 65.4721 3.63842C65.2059 3.65243 64.9421 3.70614 64.6805 3.79953C64.419 3.88826 64.1902 4.01901 63.9941 4.19179C63.8353 4.31321 63.6882 4.46965 63.5528 4.66111C63.4998 4.73416 63.4508 4.81006 63.4057 4.88883V3.69446H62.4811ZM68.6744 10.9793C69.2161 11.3062 69.8559 11.4696 70.5937 11.4696C71.3268 11.4696 71.983 11.2899 72.562 10.9303C73.1457 10.566 73.587 10.0547 73.8859 9.39626L72.9262 9.02501C72.6928 9.49666 72.3729 9.85857 71.9666 10.1107C71.565 10.3582 71.0934 10.482 70.5517 10.482C69.7578 10.482 69.1437 10.2205 68.7094 9.69746C68.324 9.22405 68.1115 8.57962 68.0718 7.76417H72.9823H73.4796H74.033C74.0563 6.87692 73.9326 6.11341 73.6617 5.47365C73.3909 4.83389 72.9916 4.34356 72.4639 4.00267C71.9363 3.6571 71.2988 3.48432 70.5517 3.48432C69.8232 3.48432 69.1904 3.64776 68.6534 3.97465C68.121 4.30153 67.7078 4.76618 67.4136 5.36858C67.1194 5.97098 66.9723 6.68546 66.9723 7.51201C66.9723 8.31054 67.1217 9.00633 67.4206 9.5994C67.7194 10.1925 68.1374 10.6524 68.6744 10.9793ZM72.3449 5.17945C72.6793 5.59082 72.8825 6.16521 72.9542 6.9026H68.0923C68.1626 6.20088 68.3683 5.64051 68.7094 5.22148C69.1437 4.69379 69.7671 4.42995 70.5797 4.42995C71.3549 4.42995 71.9433 4.67979 72.3449 5.17945ZM76.2179 10.8883C76.7923 11.2712 77.5231 11.4626 78.4104 11.4626C79.3396 11.4626 80.0681 11.2595 80.5958 10.8532C81.1282 10.4423 81.3943 9.87958 81.3943 9.16511C81.3943 8.77285 81.3103 8.44363 81.1422 8.17745C80.9741 7.91127 80.6915 7.68012 80.2946 7.48399C79.8977 7.28786 79.3513 7.10107 78.6555 6.92361C78.0625 6.77418 77.6048 6.63642 77.2826 6.51034C76.9651 6.38425 76.7456 6.25117 76.6242 6.11107C76.5027 5.96631 76.442 5.79353 76.442 5.59273C76.442 5.23315 76.6102 4.94596 76.9464 4.73115C77.2826 4.51167 77.7192 4.40894 78.2563 4.42295C78.826 4.43229 79.2953 4.56771 79.6642 4.82922C80.0378 5.08606 80.2596 5.43629 80.3296 5.87992L81.3803 5.69079C81.329 5.25183 81.1655 4.86658 80.89 4.53502C80.6145 4.20347 80.2502 3.94663 79.7973 3.76451C79.349 3.57772 78.84 3.48432 78.2703 3.48432C77.7005 3.48432 77.2009 3.57538 76.7713 3.7575C76.3416 3.93496 76.0054 4.18712 75.7626 4.51401C75.5198 4.83622 75.3983 5.21214 75.3983 5.64176C75.3983 5.99666 75.4801 6.29786 75.6435 6.54536C75.807 6.78819 76.0825 7.003 76.4701 7.18979C76.8577 7.37658 77.3947 7.56337 78.0811 7.75016C78.7209 7.92295 79.2019 8.07238 79.5241 8.19846C79.8463 8.32455 80.0588 8.46231 80.1615 8.61174C80.2689 8.7565 80.3226 8.94563 80.3226 9.17912C80.3226 9.59473 80.1569 9.92395 79.8253 10.1668C79.4937 10.4049 79.0408 10.524 78.4664 10.524C77.878 10.524 77.383 10.3979 76.9814 10.1458C76.5845 9.88892 76.33 9.54569 76.2179 9.11607L75.1672 9.29119C75.298 9.97298 75.6482 10.5053 76.2179 10.8883ZM83.5783 10.8883C84.1527 11.2712 84.8835 11.4626 85.7707 11.4626C86.7 11.4626 87.4285 11.2595 87.9562 10.8532C88.4885 10.4423 88.7547 9.87958 88.7547 9.16511C88.7547 8.77285 88.6707 8.44363 88.5025 8.17745C88.3344 7.91127 88.0519 7.68012 87.655 7.48399C87.2581 7.28786 86.7117 7.10107 86.0159 6.92361C85.4228 6.77418 84.9652 6.63642 84.643 6.51034C84.3254 6.38425 84.106 6.25117 83.9845 6.11107C83.8631 5.96631 83.8024 5.79353 83.8024 5.59273C83.8024 5.23315 83.9705 4.94596 84.3068 4.73115C84.643 4.51167 85.0796 4.40894 85.6166 4.42295C86.1863 4.43229 86.6557 4.56771 87.0246 4.82922C87.3981 5.08606 87.62 5.43629 87.69 5.87992L88.7407 5.69079C88.6893 5.25183 88.5259 4.86658 88.2504 4.53502C87.9749 4.20347 87.6106 3.94663 87.1577 3.76451C86.7094 3.57772 86.2003 3.48432 85.6306 3.48432C85.0609 3.48432 84.5613 3.57538 84.1316 3.7575C83.702 3.93496 83.3658 4.18712 83.123 4.51401C82.8801 4.83622 82.7587 5.21214 82.7587 5.64176C82.7587 5.99666 82.8404 6.29786 83.0039 6.54536C83.1673 6.78819 83.4428 7.003 83.8304 7.18979C84.218 7.37658 84.7551 7.56337 85.4415 7.75016C86.0813 7.92295 86.5623 8.07238 86.8845 8.19846C87.2067 8.32455 87.4192 8.46231 87.5219 8.61174C87.6293 8.7565 87.683 8.94563 87.683 9.17912C87.683 9.59473 87.5172 9.92395 87.1857 10.1668C86.8541 10.4049 86.4012 10.524 85.8268 10.524C85.2384 10.524 84.7434 10.3979 84.3418 10.1458C83.9448 9.88892 83.6903 9.54569 83.5783 9.11607L82.5276 9.29119C82.6583 9.97298 83.0086 10.5053 83.5783 10.8883Z" fill="#0C0C0C"/>
</svg>
